<svg width="512" height="512" viewBox="0 0 512 512" fill="none" xmlns="http://www.w3.org/2000/svg">
<path d="M512 256C512 397.385 397.385 512 256 512C114.615 512 0 397.385 0 256C0 114.615 114.615 0 256 0C397.385 0 512 114.615 512 256Z" fill="url(#paint0_linear_6_10622)"/>
<path d="M512 256C512 306.632 496.986 356.127 468.856 398.226C440.727 440.325 313.018 346.704 266.24 366.08C219.462 385.456 233.979 408.104 184.32 398.226C134.661 388.348 184.282 371.162 148.48 335.36C112.678 299.558 158.358 280.059 148.48 230.4C138.602 180.741 129.104 182.458 148.48 135.68C167.856 88.9021 71.6752 71.2734 113.774 43.1438C155.873 15.0141 205.368 -6.03781e-07 256 0L256 256H512Z" fill="black"/>
<defs>
<linearGradient id="paint0_linear_6_10622" x1="0" y1="0" x2="512" y2="512" gradientUnits="userSpaceOnUse">
<stop stop-color="#290729"/>
<stop offset="1" stop-color="#A100A5"/>
</linearGradient>
</defs>
</svg>
