<svg width="512" height="512" viewBox="0 0 512 512" fill="none" xmlns="http://www.w3.org/2000/svg">
<path d="M479.87 209.91C435.845 210.015 392.899 196.285 357.1 170.66V349.38C357.088 382.481 346.971 414.789 328.101 441.985C309.231 469.18 282.508 489.967 251.506 501.565C220.504 513.164 186.699 515.02 154.613 506.888C122.527 498.755 93.6878 481.021 71.9528 456.055C50.2177 431.09 36.6224 400.085 32.9847 367.184C29.347 334.284 35.8403 301.057 51.5963 271.947C67.3524 242.836 91.6201 219.23 121.155 204.284C150.689 189.338 184.083 183.765 216.87 188.31V278.2C201.867 273.481 185.755 273.623 170.838 278.606C155.92 283.59 142.958 293.159 133.803 305.949C124.648 318.738 119.769 334.093 119.861 349.821C119.954 365.549 125.014 380.846 134.319 393.526C143.624 406.207 156.697 415.624 171.673 420.431C186.648 425.238 202.76 425.19 217.707 420.295C232.654 415.399 245.672 405.905 254.901 393.17C264.131 380.434 269.1 365.108 269.1 349.38V0H357.1C357.039 7.4314 357.662 14.8527 358.96 22.17C362.018 38.5048 368.376 54.0441 377.646 67.8373C386.915 81.6306 398.901 93.3879 412.87 102.39C432.744 115.531 456.045 122.535 479.87 122.53V209.91Z" fill="white"/>
</svg>
